# xmcd
#
# Track frame offsets: 
#        150
#        21404
#        32550
#        43082
#        56661
#        66101
#        79560
#        93169
#        108016
#        120907
#
# Disc length: 1774 seconds
#
# Revision: 0
# Processed by: cddbd v1.5.2PL0 Copyright (c) Steve Scherf et al.
# Submitted via: ExactAudioCopy v0.95b4
#
DISCID=7106ec0a
DTITLE=Various Artist - Country Greats of the 60's Vol. 2
DYEAR=1977
DGENRE=Classic Country
TTITLE0=Ray Price - Night Life
TTITLE1="Little" Jimmy Dickens - May the Bird of Paradise Fly Up Your 
TTITLE1=Nose
TTITLE2=Johnny Cash - Daddy Sang Bass
TTITLE3=Jimmy Dean - Big Bad John
TTITLE4=Lester Flatt and Earl Scruggs with The Foggy Mountain Boys - The
TTITLE4=Ballad of Jed Clampett
TTITLE5=David Houston - Almost Persuaded
TTITLE6=Claude King - Wolverton Mountain
TTITLE7=Marty Robbins - Don't Worry
TTITLE8=Johnny Horton - North  to Alaska
TTITLE9=ammt Wynette - Stand By Your Man
EXTD=
EXTT0=
EXTT1=
EXTT2=
EXTT3=
EXTT4=
EXTT5=
EXTT6=
EXTT7=
EXTT8=
EXTT9=
PLAYORDER=
